# AST/ASF file generated using VICON BodyLanguage
# -----------------------------------------------
:version 1.10
:name VICON
:units
  mass 1.0
  length 0.45
  angle deg
:documentation
   .ast/.asf automatically generated from VICON data using
   VICON BodyBuilder and BodyLanguage model FoxedUp or BRILLIANT.MOD
:root
   order TX TY TZ RX RY RZ
   axis XYZ
   position 0 0 0  
   orientation 0 0 0 
:bonedata
  begin
     id 1 
     name lhipjoint
     direction 0.78388 -0.462562 0.414208 
     length 3.01181 
     axis 0 0 0  XYZ
  end
  begin
     id 2 
     name lfemur
     direction 0.34202 -0.939693 0  
     length 6.04673  
     axis 0 0 20  XYZ
    dof rx ry rz
    limits (-160.0 20.0)
           (-70.0 70.0)
           (-60.0 70.0)
  end
  begin
     id 3 
     name ltibia
     direction 0.34202 -0.939693 0   
     length 7.211   
     axis 0 0 20   XYZ
    dof rx
    limits (-10.0 170.0)
  end
  begin
     id 4 
     name lfoot
     direction 0.121887 -0.334882 0.934344   
     length 2.13567   
     axis -90 7.62852e-016 20   XYZ
    dof rx rz
    limits (-45.0 90.0)
           (-70.0 20.0)
  end
  begin
     id 5 
     name ltoes
     direction 1.53555e-011 -4.2179e-011 1   
     length 1.05957   
     axis -90 7.62852e-016 20   XYZ
    dof rx
    limits (-90.0 20.0)
  end
  begin
     id 6 
     name rhipjoint
     direction -0.769387 -0.475875 0.426129   
     length 2.92756  
     axis 0 0 0  XYZ 
  end
  begin
     id 7 
     name rfemur
     direction -0.34202 -0.939693 0   
     length 6.35468   
     axis 0 0 -20   XYZ
    dof rx ry rz
    limits (-160.0 20.0)
           (-70.0 70.0)
           (-70.0 60.0)
  end
  begin
     id 8 
     name rtibia
     direction -0.34202 -0.939693 0   
     length 7.37886   
     axis 0 0 -20   XYZ
    dof rx
    limits (-10.0 170.0)
 end
 begin
     id 9 
     name rfoot
     direction -0.101763 -0.279592 0.954711   
     length 2.21478  
     axis -90 -7.62852e-016 -20   XYZ
    dof rx rz
    limits (-45.0 90.0)
           (-20.0 70.0)
  end
  begin
     id 10 
     name rtoes
     direction -1.53494e-011 -4.21851e-011 1   
     length 1.10506   
     axis -90 -7.62852e-016 -20   XYZ
    dof rx
    limits (-90.0 20.0)
  end
  begin
     id 11 
     name lowerback
     direction 0.00747405 0.999267 0.0375481   
     length 2.13259   
     axis 0 0 0   XYZ
    dof rx ry rz
    limits (-20.0 45.0)
           (-30.0 30.0)
           (-30.0 30.0)
  end
  begin
     id 12 
     name upperback
     direction 0.00661626 0.996177 0.0871029   
     length 2.10528   
     axis 0 0 0   XYZ
    dof rx ry rz
    limits (-20.0 45.0)
           (-30.0 30.0)
           (-30.0 30.0)
  end
  begin
     id 13 
     name thorax
     direction 0.00320659 0.997679 0.0680167   
     length 2.11338   
     axis 0 0 0   XYZ
    dof rx ry rz
    limits (-20.0 45.0)
           (-30.0 30.0)
           (-30.0 30.0)
  end
  begin
     id 14 
     name lowerneck
     direction 0.0374841 0.973033 0.227602   
     length 1.42765   
     axis 0 0 0   XYZ
    dof rx ry rz
    limits (-20.0 45.0)
           (-30.0 30.0)
           (-30.0 30.0)
  end
  begin
     id 15 
     name upperneck
     direction 0.00481585 0.989155 -0.146795   
     length 1.47593   
     axis 0 0 0   XYZ
    dof rx ry rz
    limits (-20.0 45.0)
           (-30.0 30.0)
           (-30.0 30.0)
  end
  begin
     id 16
     name head
     direction -0.00292522 0.997206 -0.0746423  
     length 1.48116  
     axis 0 0 0   XYZ
    dof rx ry rz
    limits (-20.0 45.0)
           (-30.0 30.0)
           (-30.0 30.0)
  end
  begin
     id 17 
     name lclavicle
     direction 0.951444 0.305606 0.0368784  
     length 3.01855  
     axis 0 0 0   XYZ
    dof ry rz
    limits (-20.0 10.0)
           (0.0 20.0)
  end
  begin
     id 18 
     name lhumerus
     direction 1 -4.48977e-011 2.61664e-027   
     length 5.52731   
     axis 180 -30 -90   XYZ
    dof rx ry rz
    limits (-60.0 90.0)
           (-90.0 90.0)
           (-90.0 90.0)
  end
  begin
     id 19
     name lradius
     direction 1 -4.48944e-011 8.22157e-027   
     length 3.11059   
     axis 180 -30 -90   XYZ
    dof rx
    limits (-10.0 170.0)
  end
  begin
     id 20
     name lwrist
     direction 1 -4.48976e-011 1.5779e-026   
     length 1.5553   
     axis -1.15221e-014 90 90   XYZ
    dof ry
    limits (-180.0 0.0)
 end
  begin
     id 21 
     name lhand
     direction 1 -4.49025e-011 3.1558e-026   
     length 0.419626   
     axis -2.01367e-014 90 90   XYZ
    dof rx rz
    limits (-90.0 90.0)
           (-45.0 45.0)
  end
  begin
     id 22 
     name lfingers
     direction 1 -4.4904e-011 6.31161e-026   
     length 0.338313   
     axis -4.02734e-014 90 90   XYZ
    dof rx
    limits (0.0 90.0)
  end
  begin
     id 23
     name lthumb
     direction 0.707107 -6.35004e-011 0.707107   
     length 0.485752   
     axis -90 45 2.85299e-015   XYZ
    dof rx rz
    limits (-45.0 45.0)
           (-45.0 45.0)
  end
  begin
     id 24 
     name rclavicle
     direction -0.968876 0.223791 0.105816   
     length 3.04177  
     axis 0 0 0   XYZ 
    dof ry rz
    limits (-10.0 20.0)
           (-20.0 0.0)
  end
  begin
     id 25 
     name rhumerus
     direction -1 -4.48962e-011 -1.01384e-027  
     length 5.25396   
     axis 180 30 90   XYZ
    dof rx ry rz
    limits (-90.0 60.0)
           (-90.0 90.0)
           (-90.0 90.0)
  end
  begin
     id 26 
     name rradius
     direction -1 -4.48955e-011 8.88542e-027   
     length 3.10567   
     axis 180 30 90   XYZ
    dof rx
    limits (-10.0 170.0)
  end
  begin
     id 27 
     name rwrist
     direction -1 -4.48994e-011 1.5779e-026   
     length 1.55283   
     axis -1.15221e-014 -90 -90   XYZ
    dof ry
    limits (-180.0 0.0)
  end
  begin
     id 28
     name rhand
     direction -1 -4.48891e-011 3.1558e-026   
     length 0.498676   
     axis -2.01367e-014 -90 -90   XYZ
    dof rx rz
    limits (-90.0 90.0)
           (-45.0 45.0)
  end
  begin
     id 29
     name rfingers
     direction -1 -4.48972e-011 6.31161e-026   
     length 0.402045   
     axis -4.02734e-014 -90 -90   XYZ
    dof rx
    limits (0.0 90.0)
  end
  begin
     id 30
     name rthumb
     direction -0.707107 -6.34849e-011 0.707107   
     length 0.577259   
     axis -90 -45 -2.85299e-015   XYZ
    dof rx rz
    limits (-45.0 45.0)
           (-45.0 45.0)
  end
:hierarchy
  begin
    root lhipjoint rhipjoint lowerback
    lhipjoint lfemur
    lfemur ltibia
    ltibia lfoot
    lfoot ltoes
    rhipjoint rfemur
    rfemur rtibia
    rtibia rfoot
    rfoot rtoes
    lowerback upperback
    upperback thorax
    thorax lowerneck lclavicle rclavicle
    lowerneck upperneck
    upperneck head
    lclavicle lhumerus
    lhumerus lradius
    lradius lwrist
    lwrist lhand lthumb
    lhand lfingers
    rclavicle rhumerus
    rhumerus rradius
    rradius rwrist
    rwrist rhand rthumb
    rhand rfingers
  end

#!OML:ASF H:\Pregnant\Project 1\Capture day 1\Session 1\femalepreg.ASF
:FULLY-SPECIFIED
:DEGREES
418
root 5.57432 15.6022 28.4036 104.952 -88.7335 -89.5161
lowerback -19.6756 -0.2018 -1.48439
upperback -3.77597 -0.236117 0.533808
thorax 6.92414 -0.248794 1.3487
lowerneck -21.4565 4.08516 3.85807
upperneck 24.3514 3.48714 2.59407
head 11.5439 2.20667 0.863307
rclavicle 1.84808e-015 -9.44227e-015
rhumerus -67.2631 39.1782 -100.296
rradius 73.8553
rwrist -18.8248
rhand -14.6825 -22.703
rfingers 7.12502
rthumb 11.4709 -52.3692
lclavicle 1.84808e-015 -9.44227e-015
lhumerus -75.2591 -39.049 103.789
lradius 80.1663
lwrist 34.0236
lhand -23.73 0.846861
lfingers 7.12502
lthumb 2.73815 30.809
rfemur -29.1225 21.4065 20.0279
rtibia 32.4946
rfoot -15.5212 -16.1821
rtoes 1.54241
lfemur -17.3853 -15.2863 -18.8954
ltibia 9.08323
lfoot -4.31558 10.7531
ltoes -7.96067
419
root 5.57394 15.6022 28.4017 105.456 -88.7369 -90.0147
lowerback -19.6341 -0.195056 -1.52617
upperback -3.76756 -0.217673 0.527514
thorax 6.91043 -0.240134 1.37042
lowerneck -21.5386 4.10654 3.82918
upperneck 24.313 3.54039 2.54945
head 11.5451 2.22315 0.861559
rclavicle -1.90398e-015 6.16232e-015
rhumerus -68.1785 39.6133 -100.497
rradius 74.8451
rwrist -19.0572
rhand -14.5349 -22.8695
rfingers 7.12502
rthumb 11.6133 -52.5276
lclavicle -1.90398e-015 6.16232e-015
lhumerus -76.2108 -39.3767 104.091
lradius 81.1376
lwrist 34.2115
lhand -23.6307 1.04006
lfingers 7.12502
lthumb 2.83397 31.001
rfemur -29.1284 21.4509 20.0216
rtibia 32.497
rfoot -15.5219 -16.2108
rtoes 1.56941
lfemur -17.4078 -15.2733 -18.8902
ltibia 9.12161
lfoot -4.33821 10.7556
ltoes -7.97561
420
root 5.5739 15.6022 28.4009 104.895 -88.7371 -89.4416
lowerback -19.5946 -0.194774 -1.54351
upperback -3.76323 -0.212389 0.513672
thorax 6.8938 -0.237341 1.36675
lowerneck -21.6138 4.13708 3.82791
upperneck 24.2688 3.60039 2.49416
head 11.5437 2.24376 0.85221
rclavicle 1.29521e-015 -2.127e-014
rhumerus -69.1054 40.0503 -100.723
rradius 75.8398
rwrist -19.3208
rhand -14.3401 -23.0032
rfingers 7.12502
rthumb 11.8012 -52.6507
lclavicle 1.29521e-015 -2.127e-014
lhumerus -77.1758 -39.69 104.39
lradius 82.0925
lwrist 34.3676
lhand -23.5168 1.24028
lfingers 7.12502
lthumb 2.94405 31.1997
rfemur -29.1426 21.4601 20.0197
rtibia 32.502
rfoot -15.5286 -16.2281
rtoes 1.59382
lfemur -17.4453 -15.2826 -18.8751
ltibia 9.1556
lfoot -4.3495 10.7582
ltoes -7.98938
421
root 5.57351 15.6022 28.3999 104.437 -88.7379 -88.9741
lowerback -19.5571 -0.203215 -1.56698
upperback -3.75656 -0.217201 0.499802
thorax 6.88117 -0.239582 1.36403
lowerneck -21.6821 4.18133 3.85865
upperneck 24.2176 3.67441 2.41996
head 11.5397 2.27113 0.832681
rclavicle 2.91965e-016 -1.05356e-014
rhumerus -70.0387 40.5004 -100.978
rradius 76.8266
rwrist -19.6181
rhand -14.1309 -23.1126
rfingers 7.12502
rthumb 12.0029 -52.7485
lclavicle 2.91965e-016 -1.05356e-014
lhumerus -78.1495 -39.9776 104.682
lradius 83.0338
lwrist 34.4912
lhand -23.3918 1.44332
lfingers 7.12502
lthumb 3.06475 31.401
rfemur -29.1502 21.4733 20.0204
rtibia 32.5081
rfoot -15.5348 -16.2526
rtoes 1.6007
lfemur -17.4741 -15.2895 -18.8613
ltibia 9.18606
lfoot -4.36352 10.7599
ltoes -7.99054
422
root 5.57302 15.6023 28.3993 103.907 -88.7398 -88.4305
lowerback -19.5267 -0.2204 -1.59234
upperback -3.74888 -0.233236 0.487914
thorax 6.87377 -0.247394 1.36171
lowerneck -21.7505 4.23853 3.91559
upperneck 24.1627 3.76313 2.32643
head 11.5357 2.30501 0.804127
rclavicle 1.25172e-015 -1.39149e-015
rhumerus -70.9852 40.9729 -101.258
rradius 77.8153
rwrist -19.9621
rhand -13.9126 -23.1944
rfingers 7.12502
rthumb 12.2134 -52.8178
lclavicle 1.25172e-015 -1.39149e-015
lhumerus -79.1299 -40.2387 104.974
lradius 83.9652
lwrist 34.5727
lhand -23.2707 1.63505
lfingers 7.12502
lthumb 3.18164 31.5911
rfemur -29.1624 21.4765 20.0185
rtibia 32.5145
rfoot -15.5425 -16.2706
rtoes 1.59861
lfemur -17.5059 -15.2986 -18.8482
ltibia 9.21238
lfoot -4.37395 10.7606
ltoes -7.99489
423
root 5.5724 15.6023 28.399 103.427 -88.7446 -87.9355
lowerback -19.4991 -0.247062 -1.6253
upperback -3.74085 -0.260871 0.484722
thorax 6.86878 -0.261103 1.37021
lowerneck -21.8166 4.30658 3.97816
upperneck 24.1042 3.86999 2.21706
head 11.5305 2.34549 0.771716
rclavicle -1.0312e-015 5.36719e-015
rhumerus -71.954 41.4735 -101.559
rradius 78.8043
rwrist -20.331
rhand -13.6953 -23.2575
rfingers 7.12502
rthumb 12.4229 -52.8683
lclavicle -1.0312e-015 5.36719e-015
lhumerus -80.1147 -40.4637 105.273
lradius 84.8874
lwrist 34.6188
lhand -23.1216 1.83146
lfingers 7.12502
lthumb 3.32567 31.7853
rfemur -29.1768 21.4644 20.0147
rtibia 32.5222
rfoot -15.5467 -16.2794
rtoes 1.56121
lfemur -17.5325 -15.3079 -18.8397
ltibia 9.22609
lfoot -4.37816 10.7592
ltoes -7.99532
424
root 5.57166 15.6025 28.3989 103.101 -88.7524 -87.5936
lowerback -19.4744 -0.282825 -1.67272
upperback -3.73215 -0.298503 0.494062
thorax 6.86649 -0.280099 1.39794
lowerneck -21.8805 4.38307 4.03748
upperneck 24.0419 3.99381 2.09492
head 11.5239 2.39162 0.737856
rclavicle -3.32343e-016 2.38542e-015
rhumerus -72.9484 41.9934 -101.875
rradius 79.7912
rwrist -20.7058
rhand -13.5015 -23.3278
rfingers 7.12502
rthumb 12.6097 -52.9272
lclavicle -3.32343e-016 2.38542e-015
lhumerus -81.102 -40.6521 105.587
lradius 85.7972
lwrist 34.6247
lhand -22.9558 2.02235
lfingers 7.12502
lthumb 3.48578 31.9736
rfemur -29.1942 21.4557 20.0049
rtibia 32.5331
rfoot -15.5567 -16.2844
rtoes 1.55137
lfemur -17.5483 -15.3153 -18.8371
ltibia 9.22244
lfoot -4.37797 10.7569
ltoes -7.99051
425
root 5.57104 15.6027 28.3995 102.545 -88.7625 -87.0177
lowerback -19.4507 -0.324705 -1.72131
upperback -3.72518 -0.34476 0.512197
thorax 6.86336 -0.303412 1.43366
lowerneck -21.9417 4.46406 4.08637
upperneck 23.9755 4.13024 1.96477
head 11.5154 2.44139 0.704745
rclavicle 9.84605e-016 -7.35503e-015
rhumerus -73.9702 42.5188 -102.204
rradius 80.776
rwrist -21.0536
rhand -13.3182 -23.3959
rfingers 7.12502
rthumb 12.7865 -52.9843
lclavicle 9.84605e-016 -7.35503e-015
lhumerus -82.0957 -40.808 105.921
lradius 86.6915
lwrist 34.5907
lhand -22.7848 2.19509
lfingers 7.12502
lthumb 3.65094 32.1436
rfemur -29.2188 21.4277 19.99
rtibia 32.5477
rfoot -15.5719 -16.2729
rtoes 1.55375
lfemur -17.5606 -15.3294 -18.8389
ltibia 9.19972
lfoot -4.36561 10.7535
ltoes -7.98041
426
root 5.57083 15.6029 28.4019 101.145 -88.7735 -85.5906
lowerback -19.4289 -0.363677 -1.74913
upperback -3.72071 -0.391315 0.527297
thorax 6.85852 -0.32645 1.45421
lowerneck -22.006 4.54109 4.12426
upperneck 23.9036 4.26486 1.83459
head 11.5053 2.48934 0.673181
rclavicle 1.3977e-015 -1.5704e-014
rhumerus -75.0059 43.0144 -102.531
rradius 81.7559
rwrist -21.3671
rhand -13.1448 -23.4781
rfingers 7.12502
rthumb 12.9536 -53.056
lclavicle 1.3977e-015 -1.5704e-014
lhumerus -83.0989 -40.9602 106.281
lradius 87.5646
lwrist 34.5243
lhand -22.6234 2.36251
lfingers 7.12502
lthumb 3.80679 32.3083
rfemur -29.2548 21.3529 19.9713
rtibia 32.5656
rfoot -15.5936 -16.2312
rtoes 1.55367
lfemur -17.581 -15.3637 -18.8437
ltibia 9.16354
lfoot -4.33827 10.7497
ltoes -7.96971
427
root 5.57078 15.6032 28.405 99.3494 -88.7846 -83.7627
lowerback -19.4106 -0.394205 -1.76612
upperback -3.71698 -0.428508 0.53639
thorax 6.85436 -0.344702 1.46447
lowerneck -22.0751 4.60915 4.14972
upperneck 23.8261 4.3895 1.70945
head 11.4937 2.53233 0.643956
rclavicle -3.29237e-016 1.19271e-015
rhumerus -76.0528 43.4654 -102.855
rradius 82.7377
rwrist -21.6469
rhand -12.9849 -23.5794
rfingers 7.12502
rthumb 13.1077 -53.1475
lclavicle -3.29237e-016 1.19271e-015
lhumerus -84.116 -41.1206 106.673
lradius 88.4148
lwrist 34.4384
lhand -22.4712 2.51991
lfingers 7.12502
lthumb 3.95375 32.463
rfemur -29.2983 21.2633 19.9477
rtibia 32.5859
rfoot -15.6225 -16.1782
rtoes 1.58123
lfemur -17.6052 -15.4069 -18.8497
ltibia 9.11851
lfoot -4.29937 10.7447
ltoes -7.98394
428
root 5.57111 15.6035 28.4093 96.7153 -88.788 -81.0848
lowerback -19.4 -0.416477 -1.757
upperback -3.71511 -0.459366 0.535065
thorax 6.85188 -0.359336 1.4502
lowerneck -22.1506 4.6697 4.17559
upperneck 23.7423 4.50144 1.58951
head 11.4809 2.57033 0.614624
rclavicle -7.34571e-016 -6.95746e-015
rhumerus -77.1019 43.8677 -103.178
rradius 83.7284
rwrist -21.92
rhand -12.8042 -23.6971
rfingers 7.12502
rthumb 13.2819 -53.2539
lclavicle -7.34571e-016 -6.95746e-015
lhumerus -85.1442 -41.2947 107.08
lradius 89.2455
lwrist 34.3465
lhand -22.3202 2.66602
lfingers 7.12502
lthumb 4.09957 32.6063
rfemur -29.3564 21.1474 19.9237
rtibia 32.6066
rfoot -15.6573 -16.1107
rtoes 1.63035
lfemur -17.65 -15.467 -18.8461
ltibia 9.07254
lfoot -4.24991 10.7405
ltoes -7.99273
429
root 5.57161 15.6039 28.4141 93.7825 -88.7879 -78.1047
lowerback -19.3945 -0.414618 -1.72164
upperback -3.71209 -0.462104 0.513608
thorax 6.85196 -0.359633 1.40631
lowerneck -22.2315 4.70764 4.17719
upperneck 23.648 4.58346 1.49174
head 11.4636 2.59557 0.592474
rclavicle -2.81405e-015 5.56597e-015
rhumerus -78.1309 44.1776 -103.474
rradius 84.7171
rwrist -22.1842
rhand -12.6126 -23.8319
rfingers 7.12502
rthumb 13.4666 -53.3765
lclavicle -2.81405e-015 5.56597e-015
lhumerus -86.1961 -41.5174 107.525
lradius 90.06
lwrist 34.2793
lhand -22.1729 2.83353
lfingers 7.12502
lthumb 4.24186 32.771
rfemur -29.4176 21.0182 19.8987
rtibia 32.6256
rfoot -15.6917 -16.0368
rtoes 1.67241
lfemur -17.7054 -15.5335 -18.8413
ltibia 9.03323
lfoot -4.19923 10.7361
ltoes -7.99888
430
root 5.57207 15.6043 28.4185 90.9722 -88.7824 -75.2476
lowerback -19.3944 -0.400192 -1.67679
upperback -3.70553 -0.449273 0.48308
thorax 6.85809 -0.352118 1.35111
lowerneck -22.3174 4.73579 4.16936
upperneck 23.547 4.65237 1.40223
head 11.4441 2.61515 0.572784
rclavicle 2.32174e-015 -1.74931e-014
rhumerus -79.1575 44.4346 -103.765
rradius 85.7114
rwrist -22.4596
rhand -12.4396 -23.9834
rfingers 7.12502
rthumb 13.6334 -53.5169
lclavicle 2.32174e-015 -1.74931e-014
lhumerus -87.2587 -41.7574 107.988
lradius 90.8641
lwrist 34.2622
lhand -21.9961 3.03804
lfingers 7.12502
lthumb 4.41251 32.9721
rfemur -29.4761 20.9003 19.8762
rtibia 32.64
rfoot -15.7221 -15.9729
rtoes 1.70572
lfemur -17.7686 -15.5967 -18.832
ltibia 9.00935
lfoot -4.1535 10.7322
ltoes -8.02505
431
root 5.5717 15.6046 28.421 89.3186 -88.7784 -73.561
lowerback -19.3972 -0.372605 -1.64712
upperback -3.69064 -0.415341 0.449808
thorax 6.87411 -0.334605 1.30686
lowerneck -22.4059 4.75459 4.14768
upperneck 23.4404 4.71094 1.31941
head 11.4223 2.6297 0.55609
rclavicle 9.7684e-016 -3.97569e-015
rhumerus -80.181 44.6437 -104.052
rradius 86.7099
rwrist -22.753
rhand -12.2712 -24.118
rfingers 7.12502
rthumb 13.7956 -53.6406
lclavicle 9.7684e-016 -3.97569e-015
lhumerus -88.3302 -42.0052 108.468
lradius 91.6596
lwrist 34.3165
lhand -21.7712 3.28937
lfingers 7.12502
lthumb 4.62965 33.2188
rfemur -29.5132 20.837 19.8603
rtibia 32.6481
rfoot -15.7404 -15.9427
rtoes 1.71058
lfemur -17.8145 -15.634 -18.8249
ltibia 9.0045
lfoot -4.13334 10.7322
ltoes -8.04081
432
root 5.57049 15.6049 28.4213 88.8157 -88.7754 -73.0378
lowerback -19.4032 -0.340105 -1.63759
upperback -3.66797 -0.370641 0.419658
thorax 6.90003 -0.312276 1.28014
lowerneck -22.4993 4.7727 4.12054
upperneck 23.3329 4.76999 1.23696
head 11.401 2.64405 0.54064
rclavicle 1.3946e-015 1.39149e-015
rhumerus -81.2003 44.8225 -104.345
rradius 87.7018
rwrist -23.0741
rhand -12.0824 -24.2145
rfingers 7.12502
rthumb 13.9776 -53.7246
lclavicle 1.3946e-015 1.39149e-015
lhumerus -89.4027 -42.2405 108.955
lradius 92.4494
lwrist 34.4673
lhand -21.4927 3.5973
lfingers 7.12502
lthumb 4.89863 33.5207
rfemur -29.5298 20.8379 19.8515
rtibia 32.6499
rfoot -15.7524 -15.951
rtoes 1.72518
lfemur -17.8435 -15.6446 -18.8157
ltibia 9.01769
lfoot -4.13586 10.7352
ltoes -8.06728
